PathFileType	4	(X/Y/Z)	C:\Users\Biomechanik\SynologyDrive\AlexP\Athlete_03\Athlete_3_22_07_06\sq_85_EMG\marker_experimental.trc
DataRate	CameraRate	NumFrames	NumMarkers	Units	OrigDataRate	OrigDataStartFrame	OrigNumFrames
200.000000	200.000000	4	58	mm	200.000000	386	1544
Frame#	Time	BL			BR			GLAB			RFHD			LFHD			C7			T6			SPINMOL			SPINM2			SPINM3			T12			BELTOL			BELT2			BELT3			SACROL			SACR2			SACR3			LTHOL			LTH2			LTH3			LSHAOL			LSHA2			LSHA3			LHEE			LTOE			LM5			RTHOL			RTH2			RTH3			RSHAOL			RSHA2			RSHA3			RHEE			RTOE			RM5			STRN			XIPH			LACR			LUAOL			LUA2			LUA3			LLAOL			LLA2			LLA3			LWRU			RACR			RUAOL			RUA3			RLAOL			RLA2			RLA3			RWRU			USERMO0			USERMO1			USERMO2			USERMO3			USERMO4			USERMO5			
		X1	Y1	Z1	X2	Y2	Z2	X3	Y3	Z3	X4	Y4	Z4	X5	Y5	Z5	X6	Y6	Z6	X7	Y7	Z7	X8	Y8	Z8	X9	Y9	Z9	X10	Y10	Z10	X11	Y11	Z11	X12	Y12	Z12	X13	Y13	Z13	X14	Y14	Z14	X15	Y15	Z15	X16	Y16	Z16	X17	Y17	Z17	X18	Y18	Z18	X19	Y19	Z19	X20	Y20	Z20	X21	Y21	Z21	X22	Y22	Z22	X23	Y23	Z23	X24	Y24	Z24	X25	Y25	Z25	X26	Y26	Z26	X27	Y27	Z27	X28	Y28	Z28	X29	Y29	Z29	X30	Y30	Z30	X31	Y31	Z31	X32	Y32	Z32	X33	Y33	Z33	X34	Y34	Z34	X35	Y35	Z35	X36	Y36	Z36	X37	Y37	Z37	X38	Y38	Z38	X39	Y39	Z39	X40	Y40	Z40	X41	Y41	Z41	X42	Y42	Z42	X43	Y43	Z43	X44	Y44	Z44	X45	Y45	Z45	X46	Y46	Z46	X47	Y47	Z47	X48	Y48	Z48	X49	Y49	Z49	X50	Y50	Z50	X51	Y51	Z51	X52	Y52	Z52	X53	Y53	Z53	X54	Y54	Z54	X55	Y55	Z55	X56	Y56	Z56	X57	Y57	Z57	X58	Y58	Z58	

387	1.93	134.4674682617188	1254.424194335938	-2276.9345703125	159.8295745849609	1281.345703125	-55.17826080322258	498.2583923339844	1446.353515625	-1132.166625976562	431.2678527832031	1460.280639648438	-1061.708251953125	442.5656433105469	1460.383666992188	-1215.4208984375	251.8102874755859	1373.764404296875	-1145.62890625	97.95634460449219	1245.73583984375	-1155.969848632812	76.03058624267578	1215.902099609375	-1161.74658203125	41.21387481689453	1160.7041015625	-1115.540649414062	52.8812255859375	1158.629760742188	-1164.073974609375	35.55379486083984	1102.95068359375	-1163.8955078125	0.6365066170692444	1062.448364257812	-1164.3681640625	-10.64010047912598	1001.858825683594	-1113.538818359375	-14.43716621398926	1002.080688476563	-1163.540161132812	-16.94283676147461	927.9470825195314	-1191.643798828125	-9.355101585388184	937.9223022460939	-1142.002197265625	-40.6512451171875	880.3595581054689	-1152.29248046875	114.3125305175781	723.9146118164064	-1414.008422851562	74.17884063720703	654.9022216796876	-1408.638793945312	120.5038146972656	663.5255737304689	-1426.859497070312	97.27603912353516	327.3088684082032	-1518.365966796875	65.02631378173828	255.4512176513673	-1524.754516601562	111.4345855712891	269.3779602050782	-1536.120849609375	65.39476013183594	35.95464324951181	-1508.290161132812	270.5188293457031	48.95230865478525	-1550.832397460938	211.7229766845703	24.23659515380869	-1647.988891601562	80.21925354003906	696.9197998046875	-912.2468872070312	117.6234817504883	634.8740234375	-878.36962890625	72.5811767578125	636.0811157226562	-900.8638916015625	38.4371337890625	318.7741699218751	-818.782958984375	82.75893402099609	261.5582885742188	-786.2799682617188	38.84283447265625	257.8466796875001	-810.151123046875	34.25816345214844	34.59744644165044	-839.7049560546875	229.2072906494141	45.86239624023442	-763.8359985351562	162.6870880126953	36.11001968383793	-677.989501953125	336.8605041503906	1222.329223632812	-1156.06396484375	305.3309936523438	1071.355346679688	-1152.383666992188	218.7917633056641	1317.289794921875	-1338.912231445312	83.54756927490234	1230.533935546875	-1362.644897460938	47.92174911499023	1190.7490234375	-1323.251220703125	48.15757751464844	1186.50341796875	-1373.843017578125	34.55131149291992	1151.156860351562	-1448.526733398438	78.98879241943359	1166.473510742188	-1493.277709960938	76.35838317871094	1198.96044921875	-1455.311767578125	124.9072570800781	1242.392944335938	-1506.8310546875	226.3092956542969	1316.278198242188	-970.6231689453124	97.36795043945312	1214.062377929688	-934.5479736328124	40.11937713623047	1191.33447265625	-942.5764770507811	48.23352813720703	1177.093017578125	-861.9478759765624	95.78649139404297	1220.2509765625	-869.1995239257811	87.81536102294922	1204.459838867188	-821.0322265624999	122.2903060913086	1242.852905273438	-801.2667236328124	0.05640500038862228	0.01344200037419796	-0.06427460163831711	0.01182479970157146	0.05139569938182831	-0.05356759950518608	0.02621760033071041	0.02916339971125126	-0.01741449907422065	0.09438019990921021	0.1625670045614243	-0.7920100092887878	0.3386380076408386	2.7778000831604	-0.3673599958419798	2.839359998703003	0	0	
388	1.935	134.5011138916016	1254.472412109375	-2277.005859375	159.740966796875	1281.572387695312	-55.24604415893547	498.1934204101562	1446.400024414062	-1132.264770507812	431.2235107421875	1460.234985351562	-1061.775512695312	442.4408569335938	1460.42333984375	-1215.483520507812	251.7814178466797	1373.754516601562	-1145.688110351562	97.88199615478516	1245.758422851562	-1156.025512695312	75.94113159179688	1215.927490234375	-1161.797241210938	41.10123443603516	1160.753662109375	-1115.578369140625	52.76504898071289	1158.66455078125	-1164.111572265625	35.41813278198242	1102.995239257812	-1163.9326171875	0.5004902482032776	1062.501098632812	-1164.403686523438	-10.79951953887939	1001.922790527344	-1113.56982421875	-14.58320140838623	1002.138305664063	-1163.570190429688	-17.16766738891602	928.0081787109376	-1191.670288085938	-9.55642032623291	937.9759521484376	-1142.014892578125	-40.85496139526367	880.4144897460939	-1152.306640625	114.1069259643555	723.9147338867189	-1413.997924804688	73.96506500244141	654.9086914062501	-1408.633178710938	120.2916717529297	663.5261840820314	-1426.84716796875	97.10404968261719	327.289276123047	-1518.338134765625	64.89730072021484	255.4135131835938	-1524.728759765625	111.2961959838867	269.3675537109376	-1536.097534179688	65.40200042724609	35.94435882568369	-1508.295043945312	270.5148620605469	48.95698165893564	-1550.832763671875	211.7230834960938	24.23967170715342	-1647.985961914062	79.96719360351562	696.913818359375	-912.2567138671875	117.3762359619141	634.8712158203125	-878.38037109375	72.33719635009766	636.0704345703125	-900.885498046875	38.27564239501953	318.7451477050782	-818.828857421875	82.61904907226562	261.5566711425782	-786.3020629882812	38.71926116943359	257.8059387207032	-810.205810546875	34.25620269775391	34.59282684326177	-839.7074584960938	229.2054748535156	45.86632156372075	-763.8365478515625	162.6865539550781	36.11037063598637	-677.9906005859375	336.8036804199219	1222.285400390625	-1156.111083984375	305.2703247070312	1071.292724609375	-1152.414916992188	218.7823181152344	1317.298706054688	-1338.956665039062	83.49576568603516	1230.5947265625	-1362.701538085938	47.85334014892578	1190.8173828125	-1323.317016601562	48.09021377563477	1186.574096679688	-1373.91015625	34.4815788269043	1151.244140625	-1448.605102539062	78.931884765625	1166.544555664062	-1493.349365234375	76.31132507324219	1199.029541015625	-1455.381713867188	124.8774337768555	1242.447387695312	-1506.898559570312	226.2746276855469	1316.33837890625	-970.7010498046874	97.31107330322266	1214.142944335938	-934.5967407226561	40.05854034423828	1191.418701171875	-942.6115112304686	48.18007278442383	1177.196411132812	-861.9832763671874	95.7392578125	1220.347900390625	-869.2532348632811	87.77251434326172	1204.5693359375	-821.0805664062499	122.255256652832	1242.961547851562	-801.3251953124999	0.05707579851150513	0.013302699662745	-0.06316179782152176	0.01182940043509007	0.05194029957056046	-0.05304830148816109	0.02607420086860657	0.02854849956929684	-0.01809659972786903	0.09585600346326828	0.1624899953603745	-0.7957720160484314	0.3345009982585907	2.778259992599487	-0.3655659854412077	2.83804988861084	0	0	
389	1.94	134.5342559814453	1254.507934570313	-2277.078369140625	159.6515960693359	1281.792236328125	-55.31541442871086	498.134765625	1446.435913085938	-1132.369140625	431.191162109375	1460.182495117188	-1061.845581054688	442.321533203125	1460.45703125	-1215.549072265625	251.754638671875	1373.74462890625	-1145.74658203125	97.80702972412109	1245.780395507812	-1156.080932617188	75.85294342041016	1215.951416015625	-1161.847045898438	40.99023818969727	1160.800903320312	-1115.616088867188	52.65045928955078	1158.697509765625	-1164.149169921875	35.28519439697266	1103.037231445312	-1163.969482421875	0.3693690001964569	1062.550537109375	-1164.439086914062	-10.95355987548828	1001.983154296875	-1113.600952148438	-14.72482967376709	1002.192443847656	-1163.60009765625	-17.38559532165527	928.0622558593751	-1191.697509765625	-9.752361297607422	938.0220336914064	-1142.027709960938	-41.04995346069336	880.4603881835939	-1152.321411132812	113.9128036499023	723.9136352539064	-1413.98779296875	73.77018737792969	654.9114379882814	-1408.627197265625	120.0936126708984	663.5258789062501	-1426.837036132812	96.95166015625	327.2717285156251	-1518.314819335938	64.78282928466797	255.3800659179688	-1524.70751953125	111.1740264892578	269.3580017089845	-1536.077758789062	65.41089630126953	35.93478775024423	-1508.299438476562	270.5113220214844	48.96120071411142	-1550.8330078125	211.7229766845703	24.24245834350596	-1647.983032226562	79.72559356689453	696.9091796875	-912.2646484375	117.1398086547852	634.868408203125	-878.3910522460938	72.10349273681641	636.0617065429688	-900.90380859375	38.11896133422852	318.7142028808594	-818.875	82.48321533203125	261.5546264648438	-786.3222045898438	38.59965515136719	257.7640686035157	-810.2597045898438	34.2541618347168	34.58837127685552	-839.7097778320312	229.2035675048828	45.87021255493169	-763.8368530273438	162.6857299804688	36.11050796508793	-677.9913330078125	336.7477722167969	1222.241821289062	-1156.158325195312	305.2130126953125	1071.231079101562	-1152.4453125	218.7729949951172	1317.304931640625	-1339.001586914062	83.44041442871094	1230.659423828125	-1362.75390625	47.7825927734375	1190.890747070312	-1323.37646484375	48.01837539672852	1186.64990234375	-1373.971313476562	34.40424728393555	1151.3349609375	-1448.678588867188	78.86804962158203	1166.615600585938	-1493.4169921875	76.25895690917969	1199.100463867188	-1455.448852539062	124.8454971313477	1242.498779296875	-1506.965698242188	226.2400360107422	1316.396850585938	-970.7785034179686	97.25191497802734	1214.224975585938	-934.6472778320311	39.99448776245117	1191.505004882812	-942.6489257812499	48.123779296875	1177.30126953125	-862.0206909179686	95.68983459472656	1220.445068359375	-869.3087768554686	87.72760009765625	1204.678344726562	-821.1303710937499	122.2178268432617	1243.068725585938	-801.3850097656249	0.05795139819383621	0.01317619998008013	-0.06225980073213577	0.01182959973812103	0.05264820158481598	-0.05250659957528114	0.02582019940018654	0.02805179916322231	-0.01899120025336742	0.09691280126571655	0.1630239933729172	-0.7997739911079407	0.3308010101318359	2.778700113296509	-0.3643490076065062	2.836649894714355	0	0	
390	1.945	134.5670166015625	1254.530029296875	-2277.1513671875	159.5617370605469	1282.004760742188	-55.38633346557609	498.0816650390625	1446.460815429688	-1132.478149414062	431.169189453125	1460.123657226562	-1061.917602539062	442.208251953125	1460.483764648438	-1215.61669921875	251.7296905517578	1373.735107421875	-1145.804077148438	97.73027801513672	1245.802001953125	-1156.135986328125	75.76557922363281	1215.9736328125	-1161.896118164062	40.88053131103516	1160.845581054688	-1115.653686523438	52.53726577758789	1158.728637695312	-1164.186645507812	35.15447616577148	1103.076416015625	-1164.00634765625	0.2430369257926941	1062.596435546875	-1164.474487304688	-11.1020450592041	1002.03955078125	-1113.63232421875	-14.8618335723877	1002.242553710938	-1163.629760742188	-17.59540367126465	928.1098022460939	-1191.72607421875	-9.942302703857422	938.0613403320314	-1142.041137695312	-41.23592376708984	880.4981689453126	-1152.33740234375	113.7302932739258	723.9116210937501	-1413.978637695312	73.59445953369141	654.9106445312501	-1408.621215820312	119.9098968505859	663.5247802734376	-1426.829711914062	96.81902313232422	327.2562561035157	-1518.296264648438	64.68308258056641	255.3509063720704	-1524.690551757812	111.0681304931641	269.349334716797	-1536.061767578125	65.42105102539062	35.92605209350595	-1508.302978515625	270.5082092285156	48.96496963500986	-1550.833251953125	211.7227478027344	24.24493980407725	-1647.980224609375	79.49486541748047	696.905517578125	-912.2702026367188	116.9146347045898	634.8658447265625	-878.4012451171875	71.88081359863281	636.05517578125	-900.9180908203125	37.96785354614258	318.6817626953126	-818.9204711914062	82.35214996337891	261.5521545410157	-786.3399658203125	38.48459625244141	257.7218627929688	-810.3119506835938	34.25203323364258	34.58408355712896	-839.7119140625	229.2015838623047	45.87410354614263	-763.8369140625	162.6846466064453	36.11040878295903	-677.9917602539062	336.6920471191406	1222.198486328125	-1156.205322265625	305.1581115722656	1071.171020507812	-1152.473876953125	218.7633514404297	1317.308227539062	-1339.046752929688	83.38179016113281	1230.726196289062	-1362.803344726562	47.70939254760742	1190.967407226562	-1323.430908203125	47.94259643554688	1186.728637695312	-1374.02783203125	34.32040023803711	1151.427734375	-1448.748168945312	78.79830932617188	1166.685546875	-1493.481323242188	76.20197296142578	1199.171875	-1455.513793945312	124.8117294311523	1242.546508789062	-1507.032348632812	226.2047424316406	1316.45361328125	-970.8553466796874	97.18986511230469	1214.307983398438	-934.6989135742186	39.92647933959961	1191.593017578125	-942.6878662109374	48.06418609619141	1177.407104492188	-862.0596313476561	95.63780975341797	1220.5419921875	-869.3658447265624	87.68019104003906	1204.78662109375	-821.1810913085936	122.1775360107422	1243.174072265625	-801.4460449218749	0.05894529819488525	0.01306749973446131	-0.06163420155644417	0.01182589959353209	0.05345169827342033	-0.05193410068750381	0.02546090073883533	0.02766560018062592	-0.02009190060198307	0.09735230356454849	0.1641519963741303	-0.803725004196167	0.3275350034236908	2.779099941253662	-0.3635979890823363	2.835200071334839	0	0	
